<mxfile host="app.diagrams.net" modified="2023-09-08T02:16:01.431Z" agent="Mozilla/5.0 (Windows NT 10.0; Win64; x64) AppleWebKit/537.36 (KHTML, like Gecko) Chrome/116.0.0.0 Safari/537.36 Edg/116.0.1938.69" etag="hMcTilM7nKFnOc9wAslK" version="21.7.2" type="github">
  <diagram name="페이지-1" id="T003YGj2wqtu8_AB9h0b">
    <mxGraphModel dx="915" dy="1569" grid="0" gridSize="10" guides="1" tooltips="1" connect="1" arrows="1" fold="1" page="0" pageScale="1" pageWidth="827" pageHeight="1169" math="0" shadow="0">
      <root>
        <mxCell id="0" />
        <mxCell id="1" parent="0" />
        <mxCell id="ioPRn64Ul-CGuy8rXFvU-2" value="&lt;b&gt;Module - Report&lt;/b&gt;" style="shape=umlFrame;whiteSpace=wrap;html=1;pointerEvents=0;hachureGap=4;fontFamily=Architects Daughter;fontSource=https%3A%2F%2Ffonts.googleapis.com%2Fcss%3Ffamily%3DArchitects%2BDaughter;fontSize=20;width=286;height=39;labelBackgroundColor=none;rounded=0;" vertex="1" parent="1">
          <mxGeometry x="1517" y="-62" width="1112" height="1064" as="geometry" />
        </mxCell>
        <mxCell id="ioPRn64Ul-CGuy8rXFvU-3" style="edgeStyle=none;shape=connector;rounded=0;hachureGap=4;orthogonalLoop=1;jettySize=auto;html=1;dashed=1;labelBackgroundColor=none;strokeColor=default;fontFamily=Architects Daughter;fontSource=https%3A%2F%2Ffonts.googleapis.com%2Fcss%3Ffamily%3DArchitects%2BDaughter;fontSize=16;fontColor=default;endArrow=open;endFill=0;endSize=15;" edge="1" parent="1" source="ioPRn64Ul-CGuy8rXFvU-9" target="ioPRn64Ul-CGuy8rXFvU-5">
          <mxGeometry relative="1" as="geometry" />
        </mxCell>
        <mxCell id="ioPRn64Ul-CGuy8rXFvU-4" style="edgeStyle=none;shape=connector;rounded=0;hachureGap=4;orthogonalLoop=1;jettySize=auto;html=1;dashed=1;labelBackgroundColor=none;strokeColor=default;fontFamily=Architects Daughter;fontSource=https%3A%2F%2Ffonts.googleapis.com%2Fcss%3Ffamily%3DArchitects%2BDaughter;fontSize=16;fontColor=default;endArrow=open;endFill=0;endSize=15;" edge="1" parent="1" source="ioPRn64Ul-CGuy8rXFvU-5" target="ioPRn64Ul-CGuy8rXFvU-13">
          <mxGeometry relative="1" as="geometry" />
        </mxCell>
        <mxCell id="ioPRn64Ul-CGuy8rXFvU-33" style="edgeStyle=none;shape=connector;rounded=0;hachureGap=4;orthogonalLoop=1;jettySize=auto;html=1;dashed=1;labelBackgroundColor=none;strokeColor=default;fontFamily=Architects Daughter;fontSource=https%3A%2F%2Ffonts.googleapis.com%2Fcss%3Ffamily%3DArchitects%2BDaughter;fontSize=16;fontColor=default;endArrow=open;endFill=0;endSize=15;" edge="1" parent="1" source="ioPRn64Ul-CGuy8rXFvU-5" target="ioPRn64Ul-CGuy8rXFvU-30">
          <mxGeometry relative="1" as="geometry" />
        </mxCell>
        <mxCell id="ioPRn64Ul-CGuy8rXFvU-5" value="&lt;p style=&quot;margin:0px;margin-top:4px;text-align:center;&quot;&gt;&lt;i&gt;&amp;lt;&amp;lt;Interface&amp;gt;&amp;gt;&lt;/i&gt;&lt;br&gt;&lt;b style=&quot;background-color: initial;&quot;&gt;service::ReportService&lt;/b&gt;&lt;/p&gt;&lt;p style=&quot;margin:0px;margin-top:4px;text-align:center;&quot;&gt;&lt;/p&gt;&lt;hr size=&quot;1&quot;&gt;&lt;p style=&quot;border-color: var(--border-color); margin: 0px 0px 0px 4px;&quot;&gt;+ getReport(reportNo: String): Report&lt;/p&gt;&lt;p style=&quot;border-color: var(--border-color); margin: 0px 0px 0px 4px;&quot;&gt;+ getReportList(): List&amp;lt;Report&amp;gt;&lt;/p&gt;&lt;p style=&quot;border-color: var(--border-color); margin: 0px 0px 0px 4px;&quot;&gt;+ createReport(Report): void&lt;/p&gt;&lt;p style=&quot;border-color: var(--border-color); margin: 0px 0px 0px 4px;&quot;&gt;+ updateReport(Report): void&lt;br style=&quot;border-color: var(--border-color);&quot;&gt;&lt;/p&gt;&lt;p style=&quot;border-color: var(--border-color); margin: 0px 0px 0px 4px;&quot;&gt;+ deleteReport(Report): void&lt;/p&gt;" style="verticalAlign=top;align=left;overflow=fill;fontSize=12;fontFamily=Helvetica;html=1;whiteSpace=wrap;" vertex="1" parent="1">
          <mxGeometry x="1915" y="309" width="331" height="132" as="geometry" />
        </mxCell>
        <mxCell id="ioPRn64Ul-CGuy8rXFvU-6" style="edgeStyle=none;shape=connector;rounded=0;hachureGap=4;orthogonalLoop=1;jettySize=auto;html=1;dashed=1;labelBackgroundColor=none;strokeColor=default;fontFamily=Architects Daughter;fontSource=https%3A%2F%2Ffonts.googleapis.com%2Fcss%3Ffamily%3DArchitects%2BDaughter;fontSize=16;fontColor=default;endArrow=open;endFill=0;endSize=15;exitX=0.5;exitY=0;exitDx=0;exitDy=0;" edge="1" parent="1" source="ioPRn64Ul-CGuy8rXFvU-7" target="ioPRn64Ul-CGuy8rXFvU-13">
          <mxGeometry relative="1" as="geometry" />
        </mxCell>
        <mxCell id="ioPRn64Ul-CGuy8rXFvU-7" value="&lt;p style=&quot;margin:0px;margin-top:4px;text-align:center;&quot;&gt;&lt;i&gt;&amp;lt;&amp;lt;Interface&amp;gt;&amp;gt;&lt;/i&gt;&lt;br&gt;&lt;b style=&quot;background-color: initial;&quot;&gt;repository::ReportDAO&lt;/b&gt;&lt;/p&gt;&lt;p style=&quot;margin:0px;margin-top:4px;text-align:center;&quot;&gt;&lt;/p&gt;&lt;hr size=&quot;1&quot;&gt;&lt;p style=&quot;margin:0px;margin-left:4px;&quot;&gt;+ selectReport(reportNo: String): Report&lt;/p&gt;&lt;p style=&quot;margin:0px;margin-left:4px;&quot;&gt;+ selectRerpotList(): Report&lt;/p&gt;&lt;p style=&quot;margin:0px;margin-left:4px;&quot;&gt;+ insertReport(Report): void&lt;/p&gt;&lt;p style=&quot;margin:0px;margin-left:4px;&quot;&gt;+ updatetReport(Report): void&lt;br&gt;&lt;/p&gt;&lt;p style=&quot;margin:0px;margin-left:4px;&quot;&gt;+ deleteReport(Report): void&lt;br&gt;&lt;/p&gt;" style="verticalAlign=top;align=left;overflow=fill;fontSize=12;fontFamily=Helvetica;html=1;whiteSpace=wrap;" vertex="1" parent="1">
          <mxGeometry x="1547" y="339" width="331" height="124" as="geometry" />
        </mxCell>
        <mxCell id="ioPRn64Ul-CGuy8rXFvU-8" style="edgeStyle=none;shape=connector;rounded=0;hachureGap=4;orthogonalLoop=1;jettySize=auto;html=1;dashed=1;labelBackgroundColor=none;strokeColor=default;fontFamily=Architects Daughter;fontSource=https%3A%2F%2Ffonts.googleapis.com%2Fcss%3Ffamily%3DArchitects%2BDaughter;fontSize=16;fontColor=default;endArrow=open;endFill=0;endSize=15;" edge="1" parent="1" source="ioPRn64Ul-CGuy8rXFvU-9" target="ioPRn64Ul-CGuy8rXFvU-13">
          <mxGeometry relative="1" as="geometry" />
        </mxCell>
        <mxCell id="ioPRn64Ul-CGuy8rXFvU-29" style="rounded=0;orthogonalLoop=1;jettySize=auto;html=1;exitX=1;exitY=0.5;exitDx=0;exitDy=0;entryX=0;entryY=0.5;entryDx=0;entryDy=0;dashed=1;labelBackgroundColor=none;endArrow=open;fontSize=16;fontFamily=Architects Daughter;hachureGap=4;fontSource=https%3A%2F%2Ffonts.googleapis.com%2Fcss%3Ffamily%3DArchitects%2BDaughter;endFill=0;endSize=15;" edge="1" parent="1" source="ioPRn64Ul-CGuy8rXFvU-9" target="ioPRn64Ul-CGuy8rXFvU-28">
          <mxGeometry relative="1" as="geometry" />
        </mxCell>
        <mxCell id="ioPRn64Ul-CGuy8rXFvU-9" value="&lt;p style=&quot;margin:0px;margin-top:4px;text-align:center;&quot;&gt;&lt;b style=&quot;background-color: initial;&quot;&gt;Controller::ReportController&lt;/b&gt;&lt;/p&gt;&lt;p style=&quot;margin:0px;margin-top:4px;text-align:center;&quot;&gt;&lt;/p&gt;&lt;hr size=&quot;1&quot;&gt;&lt;p style=&quot;margin:0px;margin-left:4px;&quot;&gt;+ checkAccessToken(): boolean&lt;/p&gt;&lt;p style=&quot;margin:0px;margin-left:4px;&quot;&gt;+ getReport(reportNo: String): Report&lt;/p&gt;&lt;p style=&quot;margin:0px;margin-left:4px;&quot;&gt;+ getReportList(): List&amp;lt;Report&amp;gt;&lt;/p&gt;&lt;p style=&quot;margin:0px;margin-left:4px;&quot;&gt;+ createReport(Report): void&lt;/p&gt;&lt;p style=&quot;margin:0px;margin-left:4px;&quot;&gt;+ updateReport(Report): void&lt;br&gt;&lt;/p&gt;&lt;p style=&quot;margin:0px;margin-left:4px;&quot;&gt;+ deleteReport(Report): void&lt;br&gt;&lt;/p&gt;&lt;p style=&quot;margin:0px;margin-left:4px;&quot;&gt;+ viewReport(reportResultNo: String): void&lt;/p&gt;&lt;p style=&quot;margin:0px;margin-left:4px;&quot;&gt;+ downReport(reportResultNo: String): void&lt;/p&gt;" style="verticalAlign=top;align=left;overflow=fill;fontSize=12;fontFamily=Helvetica;html=1;whiteSpace=wrap;" vertex="1" parent="1">
          <mxGeometry x="1932" y="109" width="286" height="154" as="geometry" />
        </mxCell>
        <mxCell id="ioPRn64Ul-CGuy8rXFvU-10" style="edgeStyle=none;shape=connector;rounded=0;hachureGap=4;orthogonalLoop=1;jettySize=auto;html=1;dashed=1;labelBackgroundColor=none;strokeColor=default;fontFamily=Architects Daughter;fontSource=https%3A%2F%2Ffonts.googleapis.com%2Fcss%3Ffamily%3DArchitects%2BDaughter;fontSize=16;fontColor=default;endArrow=open;endFill=0;endSize=15;" edge="1" parent="1" source="ioPRn64Ul-CGuy8rXFvU-12" target="ioPRn64Ul-CGuy8rXFvU-7">
          <mxGeometry relative="1" as="geometry" />
        </mxCell>
        <mxCell id="ioPRn64Ul-CGuy8rXFvU-11" style="edgeStyle=none;shape=connector;rounded=0;hachureGap=4;orthogonalLoop=1;jettySize=auto;html=1;dashed=1;labelBackgroundColor=none;strokeColor=default;fontFamily=Architects Daughter;fontSource=https%3A%2F%2Ffonts.googleapis.com%2Fcss%3Ffamily%3DArchitects%2BDaughter;fontSize=16;fontColor=default;endArrow=block;endFill=0;endSize=15;" edge="1" parent="1" source="ioPRn64Ul-CGuy8rXFvU-12" target="ioPRn64Ul-CGuy8rXFvU-5">
          <mxGeometry relative="1" as="geometry" />
        </mxCell>
        <mxCell id="ioPRn64Ul-CGuy8rXFvU-12" value="&lt;p style=&quot;margin:0px;margin-top:4px;text-align:center;&quot;&gt;&lt;b style=&quot;background-color: initial;&quot;&gt;service::ReportServiceImpl&lt;/b&gt;&lt;/p&gt;&lt;p style=&quot;margin:0px;margin-top:4px;text-align:center;&quot;&gt;&lt;/p&gt;&lt;hr size=&quot;1&quot;&gt;&lt;p style=&quot;border-color: var(--border-color); margin: 0px 0px 0px 4px;&quot;&gt;+ getReport(reportNo: String): Report&lt;/p&gt;&lt;p style=&quot;border-color: var(--border-color); margin: 0px 0px 0px 4px;&quot;&gt;+ getReportList(): List&amp;lt;Report&amp;gt;&lt;/p&gt;&lt;p style=&quot;border-color: var(--border-color); margin: 0px 0px 0px 4px;&quot;&gt;+ createReport(Report): void&lt;/p&gt;&lt;p style=&quot;border-color: var(--border-color); margin: 0px 0px 0px 4px;&quot;&gt;+ updateReport(Report): void&lt;br style=&quot;border-color: var(--border-color);&quot;&gt;&lt;/p&gt;&lt;p style=&quot;border-color: var(--border-color); margin: 0px 0px 0px 4px;&quot;&gt;+ deleteReport(Report): void&lt;/p&gt;" style="verticalAlign=top;align=left;overflow=fill;fontSize=12;fontFamily=Helvetica;html=1;whiteSpace=wrap;" vertex="1" parent="1">
          <mxGeometry x="1924" y="526" width="318" height="121" as="geometry" />
        </mxCell>
        <mxCell id="ioPRn64Ul-CGuy8rXFvU-47" style="edgeStyle=none;shape=connector;rounded=0;hachureGap=4;orthogonalLoop=1;jettySize=auto;html=1;dashed=1;labelBackgroundColor=none;strokeColor=default;fontFamily=Architects Daughter;fontSource=https%3A%2F%2Ffonts.googleapis.com%2Fcss%3Ffamily%3DArchitects%2BDaughter;fontSize=16;fontColor=default;endArrow=open;endFill=0;endSize=15;" edge="1" parent="1" source="ioPRn64Ul-CGuy8rXFvU-13" target="ioPRn64Ul-CGuy8rXFvU-46">
          <mxGeometry relative="1" as="geometry" />
        </mxCell>
        <mxCell id="ioPRn64Ul-CGuy8rXFvU-13" value="&lt;p style=&quot;margin:0px;margin-top:4px;text-align:center;&quot;&gt;&lt;b style=&quot;background-color: initial;&quot;&gt;model::Report&lt;/b&gt;&lt;/p&gt;&lt;p style=&quot;margin:0px;margin-top:4px;text-align:center;&quot;&gt;&lt;/p&gt;&lt;hr size=&quot;1&quot;&gt;&lt;p style=&quot;margin:0px;margin-left:4px;&quot;&gt;- reportNo: String&lt;/p&gt;&lt;p style=&quot;margin:0px;margin-left:4px;&quot;&gt;- itemList: ArrayList&amp;lt;String, ArrayList&amp;gt;&lt;/p&gt;&lt;p style=&quot;margin:0px;margin-left:4px;&quot;&gt;&lt;span style=&quot;background-color: initial;&quot;&gt;- schedule: String&lt;/span&gt;&lt;br&gt;&lt;/p&gt;&lt;p style=&quot;margin:0px;margin-left:4px;&quot;&gt;- createdTime: Time&lt;/p&gt;" style="verticalAlign=top;align=left;overflow=fill;fontSize=12;fontFamily=Helvetica;html=1;whiteSpace=wrap;" vertex="1" parent="1">
          <mxGeometry x="1585" y="112" width="227" height="120" as="geometry" />
        </mxCell>
        <mxCell id="ioPRn64Ul-CGuy8rXFvU-14" style="edgeStyle=none;shape=connector;rounded=0;hachureGap=4;orthogonalLoop=1;jettySize=auto;html=1;dashed=1;labelBackgroundColor=none;strokeColor=default;fontFamily=Architects Daughter;fontSource=https%3A%2F%2Ffonts.googleapis.com%2Fcss%3Ffamily%3DArchitects%2BDaughter;fontSize=16;fontColor=default;endArrow=block;endFill=0;endSize=15;" edge="1" parent="1" source="ioPRn64Ul-CGuy8rXFvU-15" target="ioPRn64Ul-CGuy8rXFvU-7">
          <mxGeometry relative="1" as="geometry" />
        </mxCell>
        <mxCell id="ioPRn64Ul-CGuy8rXFvU-15" value="&lt;p style=&quot;margin:0px;margin-top:4px;text-align:center;&quot;&gt;&lt;b style=&quot;background-color: initial;&quot;&gt;repository::ReportDAOImpl&lt;/b&gt;&lt;/p&gt;&lt;p style=&quot;margin:0px;margin-top:4px;text-align:center;&quot;&gt;&lt;/p&gt;&lt;hr size=&quot;1&quot;&gt;&lt;p style=&quot;border-color: var(--border-color); margin: 0px 0px 0px 4px;&quot;&gt;+ selectReport(reportNo: String): Report&lt;/p&gt;&lt;p style=&quot;border-color: var(--border-color); margin: 0px 0px 0px 4px;&quot;&gt;+ selectRerpotList(): Report&lt;/p&gt;&lt;p style=&quot;border-color: var(--border-color); margin: 0px 0px 0px 4px;&quot;&gt;+ insertReport(Report): void&lt;/p&gt;&lt;p style=&quot;border-color: var(--border-color); margin: 0px 0px 0px 4px;&quot;&gt;+ updatetReport(Report): void&lt;br style=&quot;border-color: var(--border-color);&quot;&gt;&lt;/p&gt;&lt;p style=&quot;border-color: var(--border-color); margin: 0px 0px 0px 4px;&quot;&gt;+ deleteReport(Report): void&lt;/p&gt;" style="verticalAlign=top;align=left;overflow=fill;fontSize=12;fontFamily=Helvetica;html=1;whiteSpace=wrap;" vertex="1" parent="1">
          <mxGeometry x="1541" y="520" width="331" height="111" as="geometry" />
        </mxCell>
        <mxCell id="ioPRn64Ul-CGuy8rXFvU-28" value="&lt;p style=&quot;margin:0px;margin-top:4px;text-align:center;&quot;&gt;&lt;b style=&quot;background-color: initial;&quot;&gt;model::ReportResult&lt;/b&gt;&lt;/p&gt;&lt;p style=&quot;margin:0px;margin-top:4px;text-align:center;&quot;&gt;&lt;/p&gt;&lt;hr size=&quot;1&quot;&gt;&lt;p style=&quot;margin:0px;margin-left:4px;&quot;&gt;- reportResultNo: String&lt;/p&gt;&lt;p style=&quot;margin:0px;margin-left:4px;&quot;&gt;- contents&lt;/p&gt;" style="verticalAlign=top;align=left;overflow=fill;fontSize=12;fontFamily=Helvetica;html=1;whiteSpace=wrap;" vertex="1" parent="1">
          <mxGeometry x="2370" y="137" width="177" height="78" as="geometry" />
        </mxCell>
        <mxCell id="ioPRn64Ul-CGuy8rXFvU-32" style="edgeStyle=none;shape=connector;rounded=0;hachureGap=4;orthogonalLoop=1;jettySize=auto;html=1;exitX=0.5;exitY=0;exitDx=0;exitDy=0;dashed=1;labelBackgroundColor=none;strokeColor=default;fontFamily=Architects Daughter;fontSource=https%3A%2F%2Ffonts.googleapis.com%2Fcss%3Ffamily%3DArchitects%2BDaughter;fontSize=16;fontColor=default;endArrow=open;endFill=0;endSize=15;" edge="1" parent="1" source="ioPRn64Ul-CGuy8rXFvU-30" target="ioPRn64Ul-CGuy8rXFvU-28">
          <mxGeometry relative="1" as="geometry" />
        </mxCell>
        <mxCell id="ioPRn64Ul-CGuy8rXFvU-36" style="edgeStyle=none;shape=connector;rounded=0;hachureGap=4;orthogonalLoop=1;jettySize=auto;html=1;dashed=1;labelBackgroundColor=none;strokeColor=default;fontFamily=Architects Daughter;fontSource=https%3A%2F%2Ffonts.googleapis.com%2Fcss%3Ffamily%3DArchitects%2BDaughter;fontSize=16;fontColor=default;endArrow=open;endFill=0;endSize=15;entryX=1;entryY=0;entryDx=0;entryDy=0;" edge="1" parent="1" source="ioPRn64Ul-CGuy8rXFvU-30" target="ioPRn64Ul-CGuy8rXFvU-35">
          <mxGeometry relative="1" as="geometry" />
        </mxCell>
        <mxCell id="ioPRn64Ul-CGuy8rXFvU-30" value="&lt;p style=&quot;margin:0px;margin-top:4px;text-align:center;&quot;&gt;&lt;i&gt;&amp;lt;&amp;lt;Interface&amp;gt;&amp;gt;&lt;/i&gt;&lt;br&gt;&lt;b style=&quot;background-color: initial;&quot;&gt;service::ReportViewerService&lt;/b&gt;&lt;/p&gt;&lt;p style=&quot;margin:0px;margin-top:4px;text-align:center;&quot;&gt;&lt;/p&gt;&lt;hr size=&quot;1&quot;&gt;&lt;p style=&quot;border-color: var(--border-color); margin: 0px 0px 0px 4px;&quot;&gt;+ viewReport(reportResultNo: String): void&lt;/p&gt;&lt;p style=&quot;border-color: var(--border-color); margin: 0px 0px 0px 4px;&quot;&gt;+ downReport(reportResultNo: String): void&lt;/p&gt;" style="verticalAlign=top;align=left;overflow=fill;fontSize=12;fontFamily=Helvetica;html=1;whiteSpace=wrap;" vertex="1" parent="1">
          <mxGeometry x="2320" y="463" width="283" height="110" as="geometry" />
        </mxCell>
        <mxCell id="ioPRn64Ul-CGuy8rXFvU-34" style="edgeStyle=none;shape=connector;rounded=0;hachureGap=4;orthogonalLoop=1;jettySize=auto;html=1;dashed=1;labelBackgroundColor=none;strokeColor=default;fontFamily=Architects Daughter;fontSource=https%3A%2F%2Ffonts.googleapis.com%2Fcss%3Ffamily%3DArchitects%2BDaughter;fontSize=16;fontColor=default;endArrow=block;endFill=0;endSize=15;" edge="1" parent="1" source="ioPRn64Ul-CGuy8rXFvU-31" target="ioPRn64Ul-CGuy8rXFvU-30">
          <mxGeometry relative="1" as="geometry" />
        </mxCell>
        <mxCell id="ioPRn64Ul-CGuy8rXFvU-31" value="&lt;p style=&quot;margin:0px;margin-top:4px;text-align:center;&quot;&gt;&lt;b style=&quot;background-color: initial;&quot;&gt;service::ReportViewerServiceImpl&lt;/b&gt;&lt;/p&gt;&lt;p style=&quot;margin:0px;margin-top:4px;text-align:center;&quot;&gt;&lt;/p&gt;&lt;hr size=&quot;1&quot;&gt;&lt;p style=&quot;border-color: var(--border-color); margin: 0px 0px 0px 4px;&quot;&gt;+ viewReport(reportResultNo: String): void&lt;/p&gt;&lt;p style=&quot;border-color: var(--border-color); margin: 0px 0px 0px 4px;&quot;&gt;+ downReport(reportResultNo: String): void&lt;/p&gt;" style="verticalAlign=top;align=left;overflow=fill;fontSize=12;fontFamily=Helvetica;html=1;whiteSpace=wrap;" vertex="1" parent="1">
          <mxGeometry x="2314" y="723" width="284" height="104" as="geometry" />
        </mxCell>
        <mxCell id="ioPRn64Ul-CGuy8rXFvU-35" value="&lt;p style=&quot;margin:0px;margin-top:4px;text-align:center;&quot;&gt;&lt;i&gt;&amp;lt;&amp;lt;Interface&amp;gt;&amp;gt;&lt;/i&gt;&lt;br&gt;&lt;b style=&quot;background-color: initial;&quot;&gt;service::ReportViewerAdapter&lt;/b&gt;&lt;/p&gt;&lt;p style=&quot;margin:0px;margin-top:4px;text-align:center;&quot;&gt;&lt;/p&gt;&lt;hr size=&quot;1&quot;&gt;&lt;p style=&quot;border-color: var(--border-color); margin: 0px 0px 0px 4px;&quot;&gt;+ getReport(ReportResult): void&lt;/p&gt;&lt;p style=&quot;border-color: var(--border-color); margin: 0px 0px 0px 4px;&quot;&gt;&lt;br&gt;&lt;/p&gt;" style="verticalAlign=top;align=left;overflow=fill;fontSize=12;fontFamily=Helvetica;html=1;whiteSpace=wrap;" vertex="1" parent="1">
          <mxGeometry x="1941.5" y="720" width="271.5" height="84" as="geometry" />
        </mxCell>
        <mxCell id="ioPRn64Ul-CGuy8rXFvU-43" style="edgeStyle=none;shape=connector;rounded=0;hachureGap=4;orthogonalLoop=1;jettySize=auto;html=1;dashed=1;labelBackgroundColor=none;strokeColor=default;fontFamily=Architects Daughter;fontSource=https%3A%2F%2Ffonts.googleapis.com%2Fcss%3Ffamily%3DArchitects%2BDaughter;fontSize=16;fontColor=default;endArrow=block;endFill=0;endSize=15;" edge="1" parent="1" source="ioPRn64Ul-CGuy8rXFvU-40" target="ioPRn64Ul-CGuy8rXFvU-35">
          <mxGeometry relative="1" as="geometry" />
        </mxCell>
        <mxCell id="ioPRn64Ul-CGuy8rXFvU-40" value="&lt;p style=&quot;margin:0px;margin-top:4px;text-align:center;&quot;&gt;&lt;b&gt;ExcelRerpot&lt;/b&gt;&lt;/p&gt;&lt;p style=&quot;margin:0px;margin-top:4px;text-align:center;&quot;&gt;&lt;/p&gt;&lt;hr size=&quot;1&quot;&gt;&lt;p style=&quot;border-color: var(--border-color); margin: 0px 0px 0px 4px;&quot;&gt;+ getReport(ReportResult): void&lt;/p&gt;&lt;p style=&quot;border-color: var(--border-color); margin: 0px 0px 0px 4px;&quot;&gt;&lt;br&gt;&lt;/p&gt;" style="verticalAlign=top;align=left;overflow=fill;fontSize=12;fontFamily=Helvetica;html=1;whiteSpace=wrap;" vertex="1" parent="1">
          <mxGeometry x="1664" y="901" width="214" height="74" as="geometry" />
        </mxCell>
        <mxCell id="ioPRn64Ul-CGuy8rXFvU-44" style="edgeStyle=none;shape=connector;rounded=0;hachureGap=4;orthogonalLoop=1;jettySize=auto;html=1;dashed=1;labelBackgroundColor=none;strokeColor=default;fontFamily=Architects Daughter;fontSource=https%3A%2F%2Ffonts.googleapis.com%2Fcss%3Ffamily%3DArchitects%2BDaughter;fontSize=16;fontColor=default;endArrow=block;endFill=0;endSize=15;" edge="1" parent="1" source="ioPRn64Ul-CGuy8rXFvU-41" target="ioPRn64Ul-CGuy8rXFvU-35">
          <mxGeometry relative="1" as="geometry" />
        </mxCell>
        <mxCell id="ioPRn64Ul-CGuy8rXFvU-41" value="&lt;p style=&quot;margin:0px;margin-top:4px;text-align:center;&quot;&gt;&lt;b&gt;JsonReport&lt;/b&gt;&lt;/p&gt;&lt;p style=&quot;margin:0px;margin-top:4px;text-align:center;&quot;&gt;&lt;/p&gt;&lt;hr size=&quot;1&quot;&gt;&lt;p style=&quot;border-color: var(--border-color); margin: 0px 0px 0px 4px;&quot;&gt;+ getReport(ReportResult): void&lt;/p&gt;&lt;p style=&quot;border-color: var(--border-color); margin: 0px 0px 0px 4px;&quot;&gt;&lt;br&gt;&lt;/p&gt;" style="verticalAlign=top;align=left;overflow=fill;fontSize=12;fontFamily=Helvetica;html=1;whiteSpace=wrap;" vertex="1" parent="1">
          <mxGeometry x="1970.25" y="899" width="214" height="74" as="geometry" />
        </mxCell>
        <mxCell id="ioPRn64Ul-CGuy8rXFvU-45" style="edgeStyle=none;shape=connector;rounded=0;hachureGap=4;orthogonalLoop=1;jettySize=auto;html=1;dashed=1;labelBackgroundColor=none;strokeColor=default;fontFamily=Architects Daughter;fontSource=https%3A%2F%2Ffonts.googleapis.com%2Fcss%3Ffamily%3DArchitects%2BDaughter;fontSize=16;fontColor=default;endArrow=block;endFill=0;endSize=15;" edge="1" parent="1" source="ioPRn64Ul-CGuy8rXFvU-42" target="ioPRn64Ul-CGuy8rXFvU-35">
          <mxGeometry relative="1" as="geometry" />
        </mxCell>
        <mxCell id="ioPRn64Ul-CGuy8rXFvU-42" value="&lt;p style=&quot;margin:0px;margin-top:4px;text-align:center;&quot;&gt;&lt;b&gt;XmlReport&lt;/b&gt;&lt;/p&gt;&lt;p style=&quot;margin:0px;margin-top:4px;text-align:center;&quot;&gt;&lt;/p&gt;&lt;hr size=&quot;1&quot;&gt;&lt;p style=&quot;border-color: var(--border-color); margin: 0px 0px 0px 4px;&quot;&gt;+ getReport(ReportResult): void&lt;/p&gt;&lt;p style=&quot;border-color: var(--border-color); margin: 0px 0px 0px 4px;&quot;&gt;&lt;br&gt;&lt;/p&gt;" style="verticalAlign=top;align=left;overflow=fill;fontSize=12;fontFamily=Helvetica;html=1;whiteSpace=wrap;" vertex="1" parent="1">
          <mxGeometry x="2281" y="899" width="214" height="74" as="geometry" />
        </mxCell>
        <mxCell id="ioPRn64Ul-CGuy8rXFvU-48" style="edgeStyle=none;shape=connector;rounded=0;hachureGap=4;orthogonalLoop=1;jettySize=auto;html=1;dashed=1;labelBackgroundColor=none;strokeColor=default;fontFamily=Architects Daughter;fontSource=https%3A%2F%2Ffonts.googleapis.com%2Fcss%3Ffamily%3DArchitects%2BDaughter;fontSize=16;fontColor=default;endArrow=open;endFill=0;endSize=15;" edge="1" parent="1" source="ioPRn64Ul-CGuy8rXFvU-46" target="ioPRn64Ul-CGuy8rXFvU-28">
          <mxGeometry relative="1" as="geometry" />
        </mxCell>
        <mxCell id="ioPRn64Ul-CGuy8rXFvU-46" value="&lt;p style=&quot;margin:0px;margin-top:4px;text-align:center;&quot;&gt;&lt;i&gt;&amp;lt;&amp;lt;Batch&amp;gt;&amp;gt;&lt;/i&gt;&lt;/p&gt;&lt;p style=&quot;margin:0px;margin-top:4px;text-align:center;&quot;&gt;&lt;b&gt;ReportBatch&lt;/b&gt;&lt;/p&gt;&lt;p style=&quot;margin:0px;margin-top:4px;text-align:center;&quot;&gt;&lt;/p&gt;&lt;hr size=&quot;1&quot;&gt;&lt;p style=&quot;border-color: var(--border-color); margin: 0px 0px 0px 4px;&quot;&gt;+ createReport(Report): ReportResult&lt;/p&gt;&lt;p style=&quot;border-color: var(--border-color); margin: 0px 0px 0px 4px;&quot;&gt;&lt;br&gt;&lt;/p&gt;" style="verticalAlign=top;align=left;overflow=fill;fontSize=12;fontFamily=Helvetica;html=1;whiteSpace=wrap;" vertex="1" parent="1">
          <mxGeometry x="1976" y="-11" width="214" height="74" as="geometry" />
        </mxCell>
      </root>
    </mxGraphModel>
  </diagram>
</mxfile>
